<mxfile host="app.diagrams.net" agent="Mozilla/5.0 (Windows NT 10.0; Win64; x64) AppleWebKit/537.36 (KHTML, like Gecko) Chrome/133.0.0.0 Safari/537.36" version="26.0.14">
  <diagram name="Page-1" id="mPpAkIJsbujpCVybS--F">
    <mxGraphModel dx="1000" dy="536" grid="1" gridSize="10" guides="1" tooltips="1" connect="1" arrows="1" fold="1" page="1" pageScale="1" pageWidth="850" pageHeight="1100" math="0" shadow="0">
      <root>
        <mxCell id="0" />
        <mxCell id="1" parent="0" />
        <mxCell id="Xp4zmnY71CXWzL1FGkzT-5" style="edgeStyle=orthogonalEdgeStyle;rounded=0;orthogonalLoop=1;jettySize=auto;html=1;exitX=0.5;exitY=0.5;exitDx=0;exitDy=0;exitPerimeter=0;entryX=0;entryY=0.5;entryDx=0;entryDy=0;" edge="1" parent="1" source="Xp4zmnY71CXWzL1FGkzT-2" target="Xp4zmnY71CXWzL1FGkzT-4">
          <mxGeometry relative="1" as="geometry" />
        </mxCell>
        <mxCell id="Xp4zmnY71CXWzL1FGkzT-2" value="Customer" style="shape=umlActor;verticalLabelPosition=bottom;verticalAlign=top;html=1;outlineConnect=0;" vertex="1" parent="1">
          <mxGeometry x="80" y="80" width="40" height="80" as="geometry" />
        </mxCell>
        <mxCell id="Xp4zmnY71CXWzL1FGkzT-16" style="edgeStyle=orthogonalEdgeStyle;rounded=0;orthogonalLoop=1;jettySize=auto;html=1;exitX=0.5;exitY=0.5;exitDx=0;exitDy=0;exitPerimeter=0;" edge="1" parent="1" source="Xp4zmnY71CXWzL1FGkzT-3" target="Xp4zmnY71CXWzL1FGkzT-15">
          <mxGeometry relative="1" as="geometry" />
        </mxCell>
        <mxCell id="Xp4zmnY71CXWzL1FGkzT-3" value="Cashier" style="shape=umlActor;verticalLabelPosition=bottom;verticalAlign=top;html=1;outlineConnect=0;" vertex="1" parent="1">
          <mxGeometry x="80" y="280" width="40" height="80" as="geometry" />
        </mxCell>
        <mxCell id="Xp4zmnY71CXWzL1FGkzT-10" style="edgeStyle=orthogonalEdgeStyle;rounded=0;orthogonalLoop=1;jettySize=auto;html=1;exitX=1;exitY=0.5;exitDx=0;exitDy=0;" edge="1" parent="1" source="Xp4zmnY71CXWzL1FGkzT-4" target="Xp4zmnY71CXWzL1FGkzT-6">
          <mxGeometry relative="1" as="geometry" />
        </mxCell>
        <mxCell id="Xp4zmnY71CXWzL1FGkzT-4" value="" style="shape=image;html=1;verticalAlign=top;verticalLabelPosition=bottom;labelBackgroundColor=#ffffff;imageAspect=0;aspect=fixed;image=https://cdn1.iconfinder.com/data/icons/ionicons-outline-vol-2/512/qr-code-outline-128.png" vertex="1" parent="1">
          <mxGeometry x="200" y="80" width="80" height="80" as="geometry" />
        </mxCell>
        <mxCell id="Xp4zmnY71CXWzL1FGkzT-13" style="edgeStyle=orthogonalEdgeStyle;rounded=0;orthogonalLoop=1;jettySize=auto;html=1;exitX=1;exitY=0.5;exitDx=0;exitDy=0;" edge="1" parent="1" source="Xp4zmnY71CXWzL1FGkzT-6" target="Xp4zmnY71CXWzL1FGkzT-11">
          <mxGeometry relative="1" as="geometry" />
        </mxCell>
        <mxCell id="Xp4zmnY71CXWzL1FGkzT-14" style="edgeStyle=orthogonalEdgeStyle;rounded=0;orthogonalLoop=1;jettySize=auto;html=1;exitX=1;exitY=0.5;exitDx=0;exitDy=0;" edge="1" parent="1" source="Xp4zmnY71CXWzL1FGkzT-6" target="Xp4zmnY71CXWzL1FGkzT-12">
          <mxGeometry relative="1" as="geometry" />
        </mxCell>
        <mxCell id="Xp4zmnY71CXWzL1FGkzT-6" value="Menu" style="rounded=1;whiteSpace=wrap;html=1;" vertex="1" parent="1">
          <mxGeometry x="320" y="80" width="120" height="80" as="geometry" />
        </mxCell>
        <mxCell id="Xp4zmnY71CXWzL1FGkzT-11" value="Order" style="ellipse;whiteSpace=wrap;html=1;" vertex="1" parent="1">
          <mxGeometry x="480" y="60" width="120" height="40" as="geometry" />
        </mxCell>
        <mxCell id="Xp4zmnY71CXWzL1FGkzT-12" value="Cancel (1-5m)" style="ellipse;whiteSpace=wrap;html=1;" vertex="1" parent="1">
          <mxGeometry x="480" y="140" width="120" height="40" as="geometry" />
        </mxCell>
        <mxCell id="Xp4zmnY71CXWzL1FGkzT-19" style="edgeStyle=orthogonalEdgeStyle;rounded=0;orthogonalLoop=1;jettySize=auto;html=1;exitX=1;exitY=0.5;exitDx=0;exitDy=0;entryX=0;entryY=0.5;entryDx=0;entryDy=0;" edge="1" parent="1" source="Xp4zmnY71CXWzL1FGkzT-15" target="Xp4zmnY71CXWzL1FGkzT-17">
          <mxGeometry relative="1" as="geometry" />
        </mxCell>
        <mxCell id="Xp4zmnY71CXWzL1FGkzT-20" style="edgeStyle=orthogonalEdgeStyle;rounded=0;orthogonalLoop=1;jettySize=auto;html=1;exitX=1;exitY=0.5;exitDx=0;exitDy=0;entryX=0;entryY=0.5;entryDx=0;entryDy=0;" edge="1" parent="1" source="Xp4zmnY71CXWzL1FGkzT-15" target="Xp4zmnY71CXWzL1FGkzT-18">
          <mxGeometry relative="1" as="geometry" />
        </mxCell>
        <mxCell id="Xp4zmnY71CXWzL1FGkzT-15" value="Bill" style="rounded=1;whiteSpace=wrap;html=1;" vertex="1" parent="1">
          <mxGeometry x="200" y="280" width="120" height="80" as="geometry" />
        </mxCell>
        <mxCell id="Xp4zmnY71CXWzL1FGkzT-17" value="Provisional invoice" style="ellipse;whiteSpace=wrap;html=1;" vertex="1" parent="1">
          <mxGeometry x="360" y="260" width="120" height="40" as="geometry" />
        </mxCell>
        <mxCell id="Xp4zmnY71CXWzL1FGkzT-18" value="Invoice calculated" style="ellipse;whiteSpace=wrap;html=1;" vertex="1" parent="1">
          <mxGeometry x="360" y="340" width="120" height="40" as="geometry" />
        </mxCell>
        <mxCell id="Xp4zmnY71CXWzL1FGkzT-21" value="Cancel" style="ellipse;whiteSpace=wrap;html=1;" vertex="1" parent="1">
          <mxGeometry x="560" y="260" width="120" height="40" as="geometry" />
        </mxCell>
        <mxCell id="Xp4zmnY71CXWzL1FGkzT-22" value="" style="endArrow=classic;html=1;rounded=0;entryX=0;entryY=0.5;entryDx=0;entryDy=0;exitX=1;exitY=0.5;exitDx=0;exitDy=0;" edge="1" parent="1" source="Xp4zmnY71CXWzL1FGkzT-17" target="Xp4zmnY71CXWzL1FGkzT-21">
          <mxGeometry relative="1" as="geometry">
            <mxPoint x="280" y="330" as="sourcePoint" />
            <mxPoint x="380" y="330" as="targetPoint" />
          </mxGeometry>
        </mxCell>
        <mxCell id="Xp4zmnY71CXWzL1FGkzT-23" value="Timeout" style="edgeLabel;resizable=0;html=1;;align=center;verticalAlign=middle;" connectable="0" vertex="1" parent="Xp4zmnY71CXWzL1FGkzT-22">
          <mxGeometry relative="1" as="geometry" />
        </mxCell>
        <mxCell id="Xp4zmnY71CXWzL1FGkzT-26" value="" style="shape=image;html=1;verticalAlign=top;verticalLabelPosition=bottom;labelBackgroundColor=#ffffff;imageAspect=0;aspect=fixed;image=https://cdn4.iconfinder.com/data/icons/food-and-equipment-outline/32/spoon_holder-128.png" vertex="1" parent="1">
          <mxGeometry x="80" y="440" width="80" height="80" as="geometry" />
        </mxCell>
        <mxCell id="Xp4zmnY71CXWzL1FGkzT-27" value="KIT" style="text;html=1;align=center;verticalAlign=middle;resizable=0;points=[];autosize=1;strokeColor=none;fillColor=none;" vertex="1" parent="1">
          <mxGeometry x="100" y="510" width="40" height="30" as="geometry" />
        </mxCell>
      </root>
    </mxGraphModel>
  </diagram>
</mxfile>
